<svg id="Layer_1" data-name="Layer 1" xmlns="http://www.w3.org/2000/svg" viewBox="0 0 301.83 301.83"><defs><style>.cls-1{fill:#ef233c}.cls-2{fill:#fff}</style></defs><title>mdwhite</title><circle class="cls-1" cx="150.91" cy="150.91" r="150.91"/><path class="cls-2" d="M118.69 175.31a6.8 6.8 0 0 1-1.31 4.3 4.08 4.08 0 0 1-3.36 1.68q-4.67 0-10.83-4.11a86.65 86.65 0 0 1-13-10.92 186 186 0 0 1-13.82-15.59q-7-8.78-13.73-18t-12.61-18.3Q44.17 105.28 39.78 98t-6.91-12.24q-2.52-4.95-2.52-5.88 0-3 1.49-3.74a4.81 4.81 0 0 1 3-.75q3.74 0 10.46 5.23a151.13 151.13 0 0 1 14.84 13.55q8.12 8.31 16.81 18.49t16.43 20q7.75 9.8 13.63 18.21a128.6 128.6 0 0 1 8.31 13.07q3.37 6.7 3.37 11.37zm-43.92 54.45a11.76 11.76 0 0 1-1.37 5.72q-1.4 2.52-5.5 3.44-4.81 0-8.93-6.64a81.25 81.25 0 0 1-7.67-17.63 252.75 252.75 0 0 1-6.53-25q-3-14-5.27-28.39-5.5-34.06-9.15-77.34A8.11 8.11 0 0 1 32 79q1.6-2.17 3.21-2.18a3.46 3.46 0 0 1 2.75 1.37 8.06 8.06 0 0 1 1.6 3q1.15 9.16 3.32 20.15t4.81 22.44q2.63 11.45 5.61 23.12t5.7 22.42q6.64 25.19 14.42 51.06.46 1.83.92 4.35a28.21 28.21 0 0 1 .43 5.03zm132.8 23.32a10.44 10.44 0 0 1-2.43 6.07 7.39 7.39 0 0 1-6.16 3.27q-6.72 0-12.7-5.32a62.78 62.78 0 0 1-11.49-14.38 145.64 145.64 0 0 1-10.46-21.38q-5-12.33-9.62-26.33a130.31 130.31 0 0 1-4.48-18.4q-1.68-9.8-2.52-20.26t-1.12-21.2q-.28-10.74-.28-21-4.11 6.54-7.66 12.51-3.18 5-6.44 10.18t-5.32 7.94q-2.8 3.92-6.16 8.5t-6.73 8.57a52.21 52.21 0 0 1-6.63 6.72q-3.27 2.71-5.88 2.71a5.2 5.2 0 0 1-3.55-1.28 4.25 4.25 0 0 1-1.49-3.36 5 5 0 0 1 .37-1.87q.37-.93.75-1.68a9.86 9.86 0 0 0 .93-1.49 84 84 0 0 0 8.4-9.8q5-6.63 10.74-14.57t11.49-16.53q5.79-8.59 10.55-16t8-12.51q3.27-5.14 3.83-6.26a6.55 6.55 0 0 1 2.52-3 6.09 6.09 0 0 1 2.97-.73 6.8 6.8 0 0 1 4.3 1.31 4.88 4.88 0 0 1 1.68 4.11 8.94 8.94 0 0 1-1.49 4.67q-1.5 2.43-3.18 9.06a73.46 73.46 0 0 0-1.68 17.46 130.14 130.14 0 0 0 5.7 38 250.6 250.6 0 0 0 15.41 38.38q3.18 6.35 8.22 14.85t9.9 16.9q4.85 8.41 8.31 15.5t3.4 10.64z" transform="translate(-3.73 -5.6)"/><path class="cls-2" d="M300.58 174.18a55.65 55.65 0 0 1-7.19 27.12q-7.19 13.1-21.57 23.1t-36.14 16q-21.76 6-50.89 6-6.16 0-10.27-.41a40.43 40.43 0 0 1-5.6-.82 52.26 52.26 0 0 1-5.23-1.75 33.28 33.28 0 0 1-7-3.71 30.57 30.57 0 0 1-6.07-5.47 10.31 10.31 0 0 1-2.62-6.81q.38-3.09 2.43-4a12.76 12.76 0 0 1 5.23-.93q3.36 0 7.84.41t11.21.41a193.24 193.24 0 0 0 44.29-4.81q20.17-4.74 34.74-12.58t22.6-17.84q8-10 8-20.73 0-11.55-10.18-22.58t-32.5-19.9q-22.32-8.86-57.8-14.23t-86.1-5.36a9.14 9.14 0 0 1-4.58-1.29 4 4 0 0 1-2.33-3.61q0-1.86 2.24-4.95t8.22-6.08q6-3 16.62-5.05t27.45-2.06q38.47 0 67.51 8.15t48.56 21.24q19.51 13.1 29.32 29.59t9.81 32.95z" transform="translate(-3.73 -5.6)"/></svg>